<svg width="90" height="90" viewBox="0 0 90 90" fill="none" xmlns="http://www.w3.org/2000/svg">
<rect width="90" height="90" rx="20" fill="#EAD196"/>
<path d="M49.1364 40.6438V36.7125C50.4114 36.1729 51.7157 35.7682 53.0494 35.4984C54.3832 35.2287 55.7834 35.0938 57.25 35.0938C58.2545 35.0938 59.2398 35.1708 60.2057 35.325C61.1716 35.4792 62.1182 35.6719 63.0454 35.9031V39.6031C62.1182 39.2563 61.1809 38.9965 60.2335 38.8238C59.2861 38.6512 58.2916 38.564 57.25 38.5625C55.7818 38.5625 54.3716 38.746 53.0193 39.1129C51.667 39.4798 50.3727 39.9901 49.1364 40.6438ZM49.1364 53.3625V49.4313C50.4114 48.8917 51.7157 48.487 53.0494 48.2172C54.3832 47.9474 55.7834 47.8125 57.25 47.8125C58.2545 47.8125 59.2398 47.8896 60.2057 48.0438C61.1716 48.1979 62.1182 48.3906 63.0454 48.6219V52.3219C62.1182 51.975 61.1809 51.7145 60.2335 51.5403C59.2861 51.366 58.2916 51.2797 57.25 51.2813C55.7818 51.2813 54.3716 51.4547 53.0193 51.8016C51.667 52.1484 50.3727 52.6688 49.1364 53.3625ZM49.1364 47.0031V43.0719C50.4114 42.5323 51.7157 42.1276 53.0494 41.8578C54.3832 41.588 55.7834 41.4531 57.25 41.4531C58.2545 41.4531 59.2398 41.5302 60.2057 41.6844C61.1716 41.8385 62.1182 42.0313 63.0454 42.2625V45.9625C62.1182 45.6156 61.1809 45.3551 60.2335 45.1809C59.2861 45.0067 58.2916 44.9203 57.25 44.9219C55.7818 44.9219 54.3716 45.1053 53.0193 45.4723C51.667 45.8392 50.3727 46.3495 49.1364 47.0031ZM46.8182 57.1781C48.5182 56.3687 50.2282 55.7613 51.9483 55.3559C53.6684 54.9504 55.4356 54.7485 57.25 54.75C58.6409 54.75 60.0032 54.8656 61.3369 55.0969C62.6707 55.3281 64.0129 55.675 65.3636 56.1375V33.2438C64.0886 32.7042 62.7649 32.2995 61.3926 32.0297C60.0202 31.7599 58.6394 31.625 57.25 31.625C55.4341 31.625 53.6375 31.8563 51.8602 32.3188C50.0829 32.7813 48.4023 33.475 46.8182 34.4V57.1781ZM44.5 64C42.6454 62.5354 40.6364 61.3984 38.4727 60.5891C36.3091 59.7797 34.0682 59.375 31.75 59.375C30.1273 59.375 28.5339 59.587 26.9699 60.0109C25.4059 60.4349 23.9084 61.0323 22.4773 61.8031C21.6659 62.2271 20.8839 62.2078 20.1313 61.7453C19.3786 61.2828 19.0015 60.6083 19 59.7219V31.8563C19 31.4323 19.1066 31.0276 19.3199 30.6422C19.5332 30.2568 19.8515 29.9677 20.275 29.775C22.0909 28.8885 23.9555 28.204 25.8688 27.7215C27.782 27.239 29.7425 26.9985 31.75 27C33.9909 27 36.1839 27.2891 38.329 27.8672C40.4741 28.4453 42.5311 29.3125 44.5 30.4688C46.4704 29.3125 48.5282 28.4453 50.6733 27.8672C52.8184 27.2891 55.0106 27 57.25 27C59.2591 27 61.2203 27.2413 63.1335 27.7238C65.0468 28.2064 66.9106 28.8901 68.725 29.775C69.15 29.9677 69.4691 30.2568 69.6824 30.6422C69.8957 31.0276 70.0015 31.4323 70 31.8563V59.7219C70 60.6083 69.6237 61.2828 68.871 61.7453C68.1184 62.2078 67.3356 62.2271 66.5227 61.8031C65.0932 61.0323 63.5964 60.4349 62.0324 60.0109C60.4684 59.587 58.8743 59.375 57.25 59.375C54.9318 59.375 52.6909 59.7797 50.5273 60.5891C48.3636 61.3984 46.3545 62.5354 44.5 64Z" fill="#7D0A0A"/>
</svg>
