<svg width="90" height="90" viewBox="0 0 90 90" fill="none" xmlns="http://www.w3.org/2000/svg">
<rect width="90" height="90" rx="20" fill="#EAD196"/>
<path d="M22.4208 31.7524C29.4626 19.5579 45.0541 15.379 57.2485 22.4208C62.0801 25.21 65.8637 29.5067 68.0193 34.6522C70.175 39.7978 70.5838 45.5083 69.1831 50.9085C68.411 53.883 64.7881 54.7208 62.729 52.7199L62.4983 52.4771L57.0324 46.1953C54.5969 43.398 57.0907 39.1778 60.6213 39.814L60.9442 39.8868L62.2021 40.2122C61.254 36.3048 59.0395 32.8209 55.9039 30.304C52.7683 27.787 48.8879 26.3786 44.8678 26.2982C40.8478 26.2179 36.9142 27.4702 33.6805 29.8598C30.4469 32.2495 28.0949 35.6421 26.9915 39.5085C25.8882 43.375 26.0954 47.4979 27.5808 51.2343C29.0663 54.9707 31.7466 58.1104 35.2035 60.1638C38.6605 62.2172 42.6998 63.0688 46.6915 62.5858C50.6832 62.1028 54.4029 60.3124 57.2704 57.4938C57.6114 57.1583 58.0152 56.8933 58.4586 56.7139C58.9021 56.5345 59.3765 56.4442 59.8549 56.4481C60.3332 56.4521 60.8061 56.5502 61.2466 56.7369C61.687 56.9236 62.0863 57.1952 62.4218 57.5363C62.7573 57.8773 63.0223 58.2811 63.2017 58.7245C63.3811 59.168 63.4714 59.6424 63.4675 60.1208C63.4635 60.5991 63.3654 61.072 63.1787 61.5125C62.992 61.9529 62.7204 62.3522 62.3793 62.6877C54.4124 70.5259 41.9095 72.4442 31.7524 66.5801C19.5579 59.5383 15.379 43.9492 22.4208 31.7524ZM44.5004 28.7171C45.4055 28.7171 46.2781 29.054 46.9483 29.6623C47.6185 30.2705 48.0383 31.1065 48.1257 32.0073L48.1427 32.3594V42.9925L53.1448 47.9946C53.808 48.6541 54.1921 49.5435 54.2175 50.4785C54.2428 51.4134 53.9075 52.3223 53.2811 53.0168C52.6546 53.7113 51.785 54.1382 50.8524 54.2091C49.9197 54.2799 48.9956 53.9893 48.2714 53.3974L47.9946 53.1473L41.9241 47.0768C41.3287 46.4813 40.958 45.6978 40.8751 44.8598L40.8581 44.5004V32.3594C40.8581 31.3934 41.2419 30.467 41.9249 29.7839C42.608 29.1008 43.5344 28.7171 44.5004 28.7171Z" fill="#7D0A0A"/>
</svg>
