<svg width="90" height="90" viewBox="0 0 90 90" fill="none" xmlns="http://www.w3.org/2000/svg">
<rect width="90" height="90" rx="20" fill="#EAD196"/>
<path d="M47.2489 19C47.9985 19 48.6692 19.4666 48.9216 20.1653L50.7218 25.1555C51.367 25.3161 51.9203 25.4768 52.3895 25.6451C52.902 25.8287 53.5624 26.1066 54.3784 26.4865L58.5705 24.2681C58.9126 24.0868 59.3044 24.0214 59.6869 24.0816C60.0694 24.1419 60.4221 24.3245 60.692 24.6022L64.3792 28.4143C64.8688 28.9217 65.0065 29.6637 64.7311 30.3114L62.7651 34.9191C63.0915 35.5183 63.3516 36.0309 63.5505 36.4593C63.7646 36.9259 64.0298 37.5685 64.346 38.3972L68.9282 40.3606C69.6167 40.6539 70.0425 41.3423 69.9966 42.0793L69.66 47.3703C69.637 47.7141 69.5136 48.0435 69.3051 48.3177C69.0966 48.592 68.8122 48.799 68.4871 48.913L64.1471 50.4557C64.0222 51.055 63.8921 51.5675 63.7544 52.001C63.5323 52.6704 63.2788 53.329 62.9946 53.9746L65.1747 58.7939C65.3286 59.1325 65.37 59.5115 65.293 59.8754C65.2159 60.2393 65.0243 60.5689 64.7464 60.816L60.6002 64.5185C60.3271 64.7613 59.9864 64.9149 59.6237 64.9586C59.2609 65.0024 58.8934 64.9342 58.5705 64.7633L54.2968 62.499C53.6282 62.853 52.9384 63.1655 52.2314 63.4348L50.3649 64.1334L48.7074 68.7233C48.5846 69.0594 48.363 69.3506 48.0718 69.5585C47.7806 69.7665 47.4333 69.8815 47.0755 69.8886L42.2306 69.9982C41.8633 70.0079 41.5021 69.9035 41.1966 69.6993C40.8911 69.4952 40.6564 69.2014 40.5247 68.8584L38.5715 63.6898C37.9051 63.462 37.2452 63.2154 36.5928 62.9503C36.0591 62.7193 35.5335 62.4701 35.0169 62.2032L30.1721 64.2737C29.8529 64.4099 29.5009 64.4503 29.1591 64.3901C28.8173 64.3299 28.5004 64.1716 28.2469 63.9346L24.6617 60.5712C24.3948 60.3219 24.213 59.995 24.1421 59.6367C24.0712 59.2784 24.1147 58.9068 24.2665 58.5746L26.3498 54.0358C26.0727 53.4982 25.8158 52.9504 25.5797 52.3937C25.3041 51.7121 25.049 51.0225 24.8147 50.3257L20.2504 48.936C19.8794 48.8238 19.5558 48.5923 19.3298 48.2774C19.1039 47.9625 18.9883 47.5818 19.0009 47.1944L19.1794 42.296C19.1921 41.9764 19.292 41.6664 19.4682 41.3994C19.6443 41.1324 19.8901 40.9187 20.179 40.7814L24.9677 38.4813C25.1896 37.6679 25.3834 37.0355 25.5542 36.574C25.7948 35.9575 26.0619 35.3518 26.3549 34.7585L24.2793 30.3726C24.1217 30.0395 24.0739 29.6651 24.1426 29.3031C24.2114 28.9412 24.3931 28.6103 24.6617 28.3582L28.2418 24.977C28.4928 24.7403 28.8068 24.5812 29.1461 24.5187C29.4854 24.4563 29.8355 24.4932 30.1543 24.6251L34.994 26.6242C35.5295 26.2673 36.014 25.9791 36.4525 25.7471C36.9753 25.4691 37.6739 25.1784 38.5537 24.8648L40.2366 20.1704C40.361 19.8269 40.5885 19.5301 40.8878 19.3206C41.1872 19.1111 41.544 18.9992 41.9093 19H47.2489ZM44.5613 36.8978C40.3106 36.8978 36.8656 40.302 36.8656 44.5042C36.8656 48.7065 40.3106 52.1132 44.5613 52.1132C48.8094 52.1132 52.2543 48.7065 52.2543 44.5042C52.2543 40.302 48.812 36.8978 44.5613 36.8978Z" fill="#7D0A0A"/>
</svg>
